<?xml version="1.0" encoding="UTF-8" standalone="no"?>
<!-- Created with Inkscape (http://www.inkscape.org/) -->

<svg
   xmlns:dc="http://purl.org/dc/elements/1.1/"
   xmlns:cc="http://creativecommons.org/ns#"
   xmlns:rdf="http://www.w3.org/1999/02/22-rdf-syntax-ns#"
   xmlns:svg="http://www.w3.org/2000/svg"
   xmlns="http://www.w3.org/2000/svg"
   xmlns:sodipodi="http://sodipodi.sourceforge.net/DTD/sodipodi-0.dtd"
   xmlns:inkscape="http://www.inkscape.org/namespaces/inkscape"
   width="400"
   height="200"
   viewBox="0 0 105.83333 52.916668"
   version="1.1"
   id="svg3731"
   inkscape:version="0.92.2 (5c3e80d, 2017-08-06)"
   sodipodi:docname="fc.svg">
  <defs
     id="defs3725">
    <filter
       style="color-interpolation-filters:sRGB;"
       x="-0.15"
       width="1.3"
       y="-0.15"
       height="1.3"
       inkscape:label="Ink Blot"
       id="filter3871">
      <feGaussianBlur
         in="SourceGraphic"
         stdDeviation="0.48 0.48"
         result="blur1"
         id="feGaussianBlur3861" />
      <feTurbulence
         type="fractalNoise"
         baseFrequency="0.04"
         numOctaves="1"
         seed="0"
         result="turbulence"
         id="feTurbulence3863" />
      <feDisplacementMap
         in="blur1"
         in2="turbulence"
         xChannelSelector="R"
         yChannelSelector="G"
         scale="5.21"
         result="map"
         id="feDisplacementMap3865" />
      <feGaussianBlur
         in="map"
         stdDeviation="1.1"
         result="blur2"
         id="feGaussianBlur3867" />
      <feComposite
         in="blur2"
         in2="map"
         operator="over"
         result="composite"
         id="feComposite3869" />
    </filter>
  </defs>
  <sodipodi:namedview
     id="base"
     pagecolor="#ffffff"
     bordercolor="#666666"
     borderopacity="1.0"
     inkscape:pageopacity="0.0"
     inkscape:pageshadow="2"
     inkscape:zoom="1.4142136"
     inkscape:cx="195.83246"
     inkscape:cy="162.46729"
     inkscape:document-units="mm"
     inkscape:current-layer="layer1"
     showgrid="false"
     units="px"
     inkscape:window-width="1366"
     inkscape:window-height="705"
     inkscape:window-x="-4"
     inkscape:window-y="-4"
     inkscape:window-maximized="1"
     showguides="false"
     inkscape:guide-bbox="true">
    <sodipodi:guide
       position="71.040625,8.9958333"
       orientation="0,1"
       id="guide3873"
       inkscape:locked="false" />
    <sodipodi:guide
       position="0,52.83812"
       orientation="1,0"
       id="guide4003"
       inkscape:locked="false" />
    <sodipodi:guide
       position="0.10231933,52.916668"
       orientation="0,1"
       id="guide4005"
       inkscape:locked="false" />
    <sodipodi:guide
       position="26.181348,0.0010335286"
       orientation="0,1"
       id="guide4007"
       inkscape:locked="false" />
    <sodipodi:guide
       position="105.90568,26.4573"
       orientation="1,0"
       id="guide4009"
       inkscape:locked="false" />
  </sodipodi:namedview>
  <metadata
     id="metadata3728">
    <rdf:RDF>
      <cc:Work
         rdf:about="">
        <dc:format>image/svg+xml</dc:format>
        <dc:type
           rdf:resource="http://purl.org/dc/dcmitype/StillImage" />
        <dc:title></dc:title>
      </cc:Work>
    </rdf:RDF>
  </metadata>
  <g
     inkscape:label="Layer 1"
     inkscape:groupmode="layer"
     id="layer1"
     transform="translate(0,-244.08332)">
    <path
       inkscape:connector-curvature="0"
       d="m 5.9339885,264.7766 v 5.92078 h 2.239052 q 0.3951274,0 0.6695204,-0.094 0.2743927,-0.094 0.4609807,-0.32222 0.1975637,-0.24167 0.3073207,-0.64444 0.109757,-0.40277 0.164636,-1.00693 h 0.3402477 v 5.08837 H 9.7754983 q -0.01098,-0.56388 -0.09878,-0.96666 -0.07683,-0.40277 -0.2634177,-0.64443 -0.175612,-0.2551 -0.4829317,-0.37593 -0.296345,-0.12084 -0.7573264,-0.12084 h -2.239052 v 4.73931 q 0,0.53702 0.01097,0.87267 0.02195,0.33564 0.06586,0.55045 0.05488,0.21482 0.153661,0.33565 0.09878,0.12083 0.263418,0.22823 0.38415,0.2551 0.834156,0.2551 h 0.450005 v 0.4162 h -5.290307 v -0.4162 h 0.43903 q 0.768302,0 1.10855,-0.53704 0.219515,-0.37591 0.219515,-1.70506 v -9.7337 q 0,-0.5236 -0.02195,-0.85925 -0.01098,-0.33565 -0.06585,-0.55045 -0.05488,-0.21482 -0.153661,-0.33565 -0.09878,-0.13426 -0.252442,-0.24167 -0.384151,-0.26852 -0.834156,-0.26852 h -0.43903 v -0.40277 h 9.1647435 v 3.30275 H 11.38894 q -0.186588,-0.81898 -0.417078,-1.3023 -0.230491,-0.49676 -0.548787,-0.75184 -0.318296,-0.26853 -0.7573267,-0.34908 -0.4280527,-0.0805 -1.0207434,-0.0805 z"
       style="font-style:normal;font-variant:normal;font-weight:normal;font-stretch:normal;font-size:24.86089134px;line-height:1.25;font-family:'Shonar Bangla';-inkscape-font-specification:'Shonar Bangla';letter-spacing:0px;word-spacing:0px;fill:#4d4d4d;fill-opacity:1;stroke:none;stroke-width:0.62152225"
       id="path3875-8" />
    <path
       inkscape:connector-curvature="0"
       d="m 17.776814,277.54453 q -1.273187,1.22174 -1.602459,1.39628 -0.493909,0.28194 -1.042695,0.28194 -0.428054,0 -0.80123,-0.20138 -0.3622,-0.18797 -0.625617,-0.52361 -0.263418,-0.34907 -0.417078,-0.8324 -0.142685,-0.48333 -0.142685,-1.06063 0,-0.69815 0.219516,-1.23518 0.23049,-0.55045 0.768301,-1.03378 0.537811,-0.49676 1.426846,-0.98009 0.889036,-0.49675 2.217101,-1.08748 v -0.40278 q 0,-0.76527 -0.109758,-1.27544 -0.09878,-0.51019 -0.296345,-0.80556 -0.197563,-0.30879 -0.482933,-0.42962 -0.285369,-0.13426 -0.647568,-0.13426 -0.296345,0 -0.526837,0.1074 -0.23049,0.10739 -0.395125,0.28194 -0.164637,0.17453 -0.252443,0.40278 -0.0878,0.2148 -0.0878,0.44305 0,0.17453 0.01098,0.36249 0.01098,0.18796 0.01098,0.33564 0,0.51019 -0.219515,0.76527 -0.208539,0.25509 -0.548787,0.25509 -0.340247,0 -0.559762,-0.28194 -0.20854,-0.29537 -0.20854,-0.80554 0,-0.4699 0.20854,-0.92638 0.208539,-0.45648 0.592689,-0.81898 0.395127,-0.36249 0.95489,-0.5773 0.570738,-0.22825 1.284162,-0.22825 0.965865,0 1.646361,0.34908 0.680496,0.34907 0.965866,1.18146 0.164635,0.48333 0.164635,1.96017 v 3.45042 q 0,0.87269 0.02195,1.34258 0.02195,0.4699 0.06586,0.69815 0.05488,0.21481 0.131708,0.25509 0.0878,0.0403 0.208539,0.0403 0.09878,0 0.175612,-0.0269 0.0878,-0.0403 0.186588,-0.13426 0.109758,-0.10739 0.252442,-0.28194 0.153661,-0.17454 0.373175,-0.44305 v 0.61759 q -0.998792,1.6648 -1.942706,1.6648 -0.428054,0 -0.702448,-0.37593 -0.274392,-0.37592 -0.274392,-1.28887 z m 0,-4.60505 q -0.943915,0.46991 -1.547581,0.83241 -0.603665,0.36249 -0.954889,0.72499 -0.340248,0.34907 -0.471956,0.72499 -0.13171,0.37593 -0.13171,0.85925 0,0.38935 0.09878,0.73841 0.109757,0.33565 0.285369,0.59074 0.186588,0.24167 0.417078,0.38935 0.230491,0.13426 0.493909,0.13426 0.680496,0 1.810998,-1.11435 z"
       style="font-style:normal;font-variant:normal;font-weight:normal;font-stretch:normal;font-size:24.86089134px;line-height:1.25;font-family:'Shonar Bangla';-inkscape-font-specification:'Shonar Bangla';letter-spacing:0px;word-spacing:0px;fill:#4d4d4d;fill-opacity:1;stroke:none;stroke-width:0.62152225"
       id="path3877-5" />
    <path
       inkscape:connector-curvature="0"
       d="m 23.747616,270.69738 q 1.470749,-2.16156 2.787838,-2.16156 0.460981,0 0.856108,0.18797 0.395126,0.18796 0.680495,0.64444 0.28537,0.44305 0.450006,1.18146 0.164636,0.725 0.164636,1.81249 v 4.34995 q 0,0.53704 0.02195,0.89953 0.03293,0.3625 0.153661,0.59073 0.120735,0.21482 0.373177,0.30879 0.252441,0.094 0.713422,0.094 v 0.40277 h -4.104927 v -0.40277 h 0.164636 q 0.406102,0 0.636593,-0.094 0.241467,-0.094 0.3622,-0.30879 0.120733,-0.21481 0.142684,-0.57731 0.03293,-0.3625 0.03293,-0.91295 v -4.16199 q 0,-1.40971 -0.296345,-2.0273 -0.296345,-0.61759 -0.987817,-0.61759 -1.075622,0 -2.151245,1.43657 v 5.37031 q 0,0.56388 0.02195,0.8861 0.03293,0.30879 0.0878,0.48333 0.06586,0.17454 0.142685,0.24166 0.0878,0.0671 0.186587,0.13427 0.241467,0.14768 0.910987,0.14768 v 0.40277 h -4.115902 v -0.40277 h 0.186587 q 0.318297,0 0.526836,-0.0805 0.208539,-0.094 0.329272,-0.30879 0.120733,-0.21481 0.164636,-0.57731 0.05487,-0.3625 0.05487,-0.92638 v -3.77264 q 0,-1.83934 -0.06585,-2.22868 -0.06585,-0.40277 -0.208539,-0.55045 -0.142686,-0.14769 -0.373176,-0.14769 -0.263418,0 -0.614642,0.17454 l -0.131708,-0.40278 2.502469,-1.2486 h 0.395126 z"
       style="font-style:normal;font-variant:normal;font-weight:normal;font-stretch:normal;font-size:24.86089134px;line-height:1.25;font-family:'Shonar Bangla';-inkscape-font-specification:'Shonar Bangla';letter-spacing:0px;word-spacing:0px;fill:#4d4d4d;fill-opacity:1;stroke:none;stroke-width:0.62152225"
       id="path3879-9" />
    <path
       inkscape:connector-curvature="0"
       d="m 33.04407,265.50161 v 3.32959 h 1.942706 v 0.77869 H 33.04407 v 6.60548 q 0,0.48333 0.05488,0.80555 0.06585,0.32222 0.175612,0.52361 0.109757,0.18796 0.252441,0.26852 0.15366,0.0671 0.340247,0.0671 0.296346,0 0.581715,-0.21481 0.285369,-0.22824 0.439029,-0.68472 h 0.351226 q -0.318296,1.10092 -0.900012,1.65137 -0.581715,0.53704 -1.196356,0.53704 -0.417078,0 -0.823182,-0.28194 -0.197562,-0.13425 -0.351221,-0.32222 -0.142687,-0.20139 -0.241467,-0.48333 -0.0878,-0.28194 -0.142684,-0.67129 -0.04391,-0.40277 -0.04391,-0.95323 v -6.84712 h -1.306113 v -0.36249 q 0.493908,-0.24167 1.009769,-0.81898 0.526836,-0.59073 0.932937,-1.39628 0.109757,-0.21481 0.252441,-0.59074 0.142685,-0.37591 0.329274,-0.93979 z"
       style="font-style:normal;font-variant:normal;font-weight:normal;font-stretch:normal;font-size:24.86089134px;line-height:1.25;font-family:'Shonar Bangla';-inkscape-font-specification:'Shonar Bangla';letter-spacing:0px;word-spacing:0px;fill:#4d4d4d;fill-opacity:1;stroke:none;stroke-width:0.62152225"
       id="path3881-3" />
    <path
       inkscape:connector-curvature="0"
       d="m 40.518547,277.54453 q -1.273186,1.22174 -1.602457,1.39628 -0.493908,0.28194 -1.042696,0.28194 -0.428054,0 -0.80123,-0.20138 -0.362199,-0.18797 -0.625615,-0.52361 -0.26342,-0.34907 -0.417079,-0.8324 -0.142685,-0.48333 -0.142685,-1.06063 0,-0.69815 0.219515,-1.23518 0.230489,-0.55045 0.768302,-1.03378 0.537811,-0.49676 1.426845,-0.98009 0.889037,-0.49675 2.2171,-1.08748 v -0.40278 q 0,-0.76527 -0.109757,-1.27544 -0.09878,-0.51019 -0.296344,-0.80556 -0.197565,-0.30879 -0.482934,-0.42962 -0.285369,-0.13426 -0.647567,-0.13426 -0.296347,0 -0.526836,0.1074 -0.230492,0.10739 -0.395129,0.28194 -0.164634,0.17453 -0.252441,0.40278 -0.0878,0.2148 -0.0878,0.44305 0,0.17453 0.01098,0.36249 0.01098,0.18796 0.01098,0.33564 0,0.51019 -0.219514,0.76527 -0.208539,0.25509 -0.548788,0.25509 -0.340249,0 -0.559763,-0.28194 -0.20854,-0.29537 -0.20854,-0.80554 0,-0.4699 0.20854,-0.92638 0.208539,-0.45648 0.59269,-0.81898 0.395126,-0.36249 0.954889,-0.5773 0.570738,-0.22825 1.284164,-0.22825 0.965864,0 1.646359,0.34908 0.680495,0.34907 0.965867,1.18146 0.164634,0.48333 0.164634,1.96017 v 3.45042 q 0,0.87269 0.02196,1.34258 0.02196,0.4699 0.06585,0.69815 0.05488,0.21481 0.131709,0.25509 0.0878,0.0403 0.20854,0.0403 0.09878,0 0.175612,-0.0269 0.0878,-0.0403 0.186586,-0.13426 0.109757,-0.10739 0.252442,-0.28194 0.153659,-0.17454 0.373176,-0.44305 v 0.61759 q -0.998791,1.6648 -1.942708,1.6648 -0.428054,0 -0.702445,-0.37593 -0.274394,-0.37592 -0.274394,-1.28887 z m 0,-4.60505 q -0.943912,0.46991 -1.54758,0.83241 -0.603665,0.36249 -0.954889,0.72499 -0.340249,0.34907 -0.471956,0.72499 -0.131709,0.37593 -0.131709,0.85925 0,0.38935 0.09878,0.73841 0.109757,0.33565 0.285369,0.59074 0.186587,0.24167 0.417078,0.38935 0.23049,0.13426 0.493909,0.13426 0.680495,0 1.810996,-1.11435 z"
       style="font-style:normal;font-variant:normal;font-weight:normal;font-stretch:normal;font-size:24.86089134px;line-height:1.25;font-family:'Shonar Bangla';-inkscape-font-specification:'Shonar Bangla';letter-spacing:0px;word-spacing:0px;fill:#4d4d4d;fill-opacity:1;stroke:none;stroke-width:0.62152225"
       id="path3883-8" />
    <path
       inkscape:connector-curvature="0"
       d="m 49.441826,268.53582 v 3.46386 h -0.307321 q -0.175612,-0.81897 -0.395126,-1.35601 -0.219517,-0.55045 -0.504886,-0.87267 -0.274392,-0.32222 -0.614641,-0.44305 -0.340248,-0.13426 -0.746349,-0.13426 -0.318297,0 -0.581716,0.12083 -0.252442,0.10739 -0.439028,0.29537 -0.18659,0.17453 -0.296347,0.41621 -0.09878,0.24165 -0.09878,0.48331 0,0.3088 0.05488,0.57732 0.06585,0.25509 0.219517,0.49675 0.164635,0.24167 0.439029,0.48333 0.285369,0.22823 0.7244,0.48333 l 1.328062,0.7787 q 0.93294,0.55045 1.382946,1.28887 0.460981,0.72499 0.460981,1.61109 0,0.69815 -0.241467,1.27545 -0.241467,0.56388 -0.636593,0.96665 -0.384151,0.40278 -0.889034,0.61759 -0.493911,0.22824 -1.009769,0.22824 -0.790255,0 -1.745144,-0.33564 -0.329272,-0.10739 -0.493909,-0.10739 -0.219514,0 -0.329271,0.29536 h -0.296346 v -3.63839 h 0.296346 q 0.120732,0.79213 0.373176,1.38286 0.252442,0.57731 0.592691,0.96665 0.351221,0.38935 0.757325,0.59073 0.417078,0.18797 0.856107,0.18797 0.307321,0 0.570738,-0.12083 0.263419,-0.12083 0.450006,-0.32222 0.186586,-0.21481 0.285369,-0.48333 0.109757,-0.28194 0.109757,-0.60416 0,-0.33564 -0.06585,-0.60416 -0.06585,-0.28194 -0.252441,-0.53703 -0.175612,-0.25509 -0.482934,-0.51018 -0.307319,-0.25509 -0.779277,-0.56388 l -1.185378,-0.75185 q -0.493911,-0.30879 -0.80123,-0.60416 -0.296347,-0.29537 -0.471956,-0.61759 -0.164637,-0.32222 -0.230492,-0.67128 -0.05488,-0.3625 -0.05488,-0.79212 0,-0.61759 0.186587,-1.15462 0.186586,-0.53703 0.51586,-0.92638 0.340247,-0.40278 0.801228,-0.63101 0.46098,-0.22825 1.020743,-0.22825 0.164637,0 0.428057,0.0671 0.274391,0.0671 0.548785,0.14768 0.285369,0.0805 0.504883,0.14768 0.230492,0.0671 0.318297,0.0671 0.142684,0 0.219517,-0.0805 0.0878,-0.0805 0.197561,-0.34907 z"
       style="font-style:normal;font-variant:normal;font-weight:normal;font-stretch:normal;font-size:24.86089134px;line-height:1.25;font-family:'Shonar Bangla';-inkscape-font-specification:'Shonar Bangla';letter-spacing:0px;word-spacing:0px;fill:#4d4d4d;fill-opacity:1;stroke:none;stroke-width:0.62152225"
       id="path3885-4" />
    <path
       inkscape:connector-curvature="0"
       d="m 53.722364,265.50161 v 3.32959 h 1.942706 v 0.77869 h -1.942706 v 6.60548 q 0,0.48333 0.05488,0.80555 0.06585,0.32222 0.175612,0.52361 0.109757,0.18796 0.252442,0.26852 0.153662,0.0671 0.340249,0.0671 0.296344,0 0.581715,-0.21481 0.285369,-0.22824 0.439029,-0.68472 h 0.351223 q -0.318296,1.10092 -0.900011,1.65137 -0.581713,0.53704 -1.196354,0.53704 -0.417078,0 -0.823182,-0.28194 -0.197562,-0.13425 -0.351224,-0.32222 -0.142684,-0.20139 -0.241466,-0.48333 -0.0878,-0.28194 -0.142685,-0.67129 -0.04391,-0.40277 -0.04391,-0.95323 v -6.84712 h -1.306113 v -0.36249 q 0.493908,-0.24167 1.009767,-0.81898 0.526835,-0.59073 0.932939,-1.39628 0.109757,-0.21481 0.252442,-0.59074 0.142684,-0.37591 0.329271,-0.93979 z"
       style="font-style:normal;font-variant:normal;font-weight:normal;font-stretch:normal;font-size:24.86089134px;line-height:1.25;font-family:'Shonar Bangla';-inkscape-font-specification:'Shonar Bangla';letter-spacing:0px;word-spacing:0px;fill:#4d4d4d;fill-opacity:1;stroke:none;stroke-width:0.62152225"
       id="path3887-8" />
    <path
       inkscape:connector-curvature="0"
       d="m 58.60657,263.21922 q 0.186589,0 0.351223,0.094 0.164637,0.0805 0.285369,0.24167 0.13171,0.14768 0.197565,0.34906 0.07683,0.20139 0.07683,0.44305 0,0.45648 -0.274394,0.79213 -0.26342,0.33564 -0.636593,0.33564 -0.197565,0 -0.373176,-0.094 -0.164637,-0.094 -0.296344,-0.24166 -0.120735,-0.16111 -0.197565,-0.36251 -0.06585,-0.20137 -0.06585,-0.42962 0,-0.4699 0.263416,-0.79211 0.274394,-0.33565 0.669521,-0.33565 z m 0.746349,5.3166 v 8.17631 q 0,0.56388 0.03293,0.93981 0.03293,0.36249 0.164637,0.5773 0.13171,0.21482 0.384152,0.29537 0.252441,0.0805 0.680495,0.0805 v 0.40277 h -4.039071 v -0.40277 q 0.439028,0 0.69147,-0.0671 0.252441,-0.0805 0.384151,-0.29536 0.13171,-0.21482 0.164637,-0.57731 0.03293,-0.3625 0.03293,-0.95324 v -3.92032 q 0,-0.95323 -0.02196,-1.50369 -0.02196,-0.56388 -0.09878,-0.84582 -0.06585,-0.28194 -0.197564,-0.34908 -0.13171,-0.0805 -0.340249,-0.0805 -0.263417,0 -0.614641,0.17453 l -0.120732,-0.40278 2.502469,-1.2486 z"
       style="font-style:normal;font-variant:normal;font-weight:normal;font-stretch:normal;font-size:24.86089134px;line-height:1.25;font-family:'Shonar Bangla';-inkscape-font-specification:'Shonar Bangla';letter-spacing:0px;word-spacing:0px;fill:#4d4d4d;fill-opacity:1;stroke:none;stroke-width:0.62152225"
       id="path3889-1" />
    <path
       inkscape:connector-curvature="0"
       d="m 84.783712,268.53582 v 2.29581 q 1.031719,-2.29581 2.14027,-2.29581 0.241466,0 0.450006,0.1074 0.219514,0.094 0.373173,0.26851 0.15366,0.17454 0.241467,0.40277 0.0878,0.21482 0.0878,0.45648 0,0.42962 -0.241467,0.73841 -0.230492,0.29537 -0.559763,0.29537 -0.153662,0 -0.340249,-0.12083 -0.186587,-0.12083 -0.373176,-0.25509 -0.186587,-0.14768 -0.351221,-0.26851 -0.153662,-0.12084 -0.230492,-0.12084 -0.252442,0 -0.570738,0.48333 -0.318297,0.48333 -0.625618,1.23517 v 4.87357 q 0,0.4699 0.04391,0.83239 0.0439,0.3625 0.197561,0.61759 0.153662,0.25508 0.439031,0.38934 0.285369,0.13427 0.768303,0.13427 v 0.40277 h -4.258588 v -0.40277 q 0.417079,0 0.66952,-0.0671 0.263417,-0.0671 0.395126,-0.26852 0.142685,-0.20139 0.186587,-0.56388 0.05488,-0.37593 0.05488,-0.98009 v -3.94718 q 0,-1.75877 -0.06585,-2.10785 -0.06585,-0.34906 -0.219517,-0.49674 -0.153659,-0.16111 -0.384151,-0.16111 -0.307319,0 -0.636593,0.17453 l -0.0878,-0.40278 2.513444,-1.2486 z"
       style="font-style:normal;font-variant:normal;font-weight:normal;font-stretch:normal;font-size:24.86089134px;line-height:1.25;font-family:'Shonar Bangla';-inkscape-font-specification:'Shonar Bangla';letter-spacing:0px;word-spacing:0px;fill:#4d4d4d;fill-opacity:1;stroke:none;stroke-width:0.62152225"
       id="path3895-2" />
    <path
       inkscape:connector-curvature="0"
       d="m 94.409436,277.86674 q -0.603663,0.7787 -1.185376,1.11435 -0.581713,0.33564 -1.251236,0.33564 -0.680492,0 -1.295132,-0.3625 -0.614643,-0.36249 -1.086607,-1.02035 -0.471953,-0.65787 -0.746347,-1.57082 -0.274394,-0.91295 -0.274394,-2.01387 0,-1.07406 0.296346,-2.10784 0.296344,-1.04721 0.823182,-1.86619 0.537808,-0.8324 1.273181,-1.34258 0.746352,-0.51017 1.635389,-0.51017 1.108549,0 1.810994,0.85924 v -1.87961 q 0,-1.74535 -0.06582,-2.13469 -0.06582,-0.40278 -0.219512,-0.55047 -0.142687,-0.14768 -0.362209,-0.14768 -0.219512,0 -0.625607,0.18796 l -0.120735,-0.38934 2.480511,-1.2486 h 0.406106 v 11.76099 q 0,1.78563 0.06582,2.1884 0.06582,0.38934 0.219512,0.55045 0.153654,0.14768 0.351224,0.14768 0.230489,0 0.658545,-0.18795 l 0.09878,0.38934 -2.469544,1.2486 h -0.417081 z m 0,-6.01475 q 0,-0.56388 -0.175607,-1.04721 -0.164637,-0.48332 -0.439033,-0.83239 -0.26342,-0.3625 -0.603666,-0.55046 -0.329269,-0.20139 -0.64757,-0.20139 -0.493909,0 -0.921959,0.29537 -0.417082,0.29537 -0.724398,0.85925 -0.307324,0.55046 -0.482931,1.34258 -0.175617,0.77869 -0.175617,1.74535 0,1.12776 0.219515,2.00044 0.219522,0.85926 0.58172,1.44999 0.362199,0.57731 0.823177,0.8861 0.460979,0.29537 0.943912,0.29537 0.823187,0 1.602457,-1.00693 z"
       style="font-style:normal;font-variant:normal;font-weight:normal;font-stretch:normal;font-size:24.86089134px;line-height:1.25;font-family:'Shonar Bangla';-inkscape-font-specification:'Shonar Bangla';letter-spacing:0px;word-spacing:0px;fill:#4d4d4d;fill-opacity:1;stroke:none;stroke-width:0.62152225"
       id="path3897-5" />
    <path
       inkscape:connector-curvature="0"
       d="m 103.22294,268.53582 v 3.46386 h -0.30731 q -0.17562,-0.81897 -0.39513,-1.35601 -0.21951,-0.55045 -0.50488,-0.87267 -0.2744,-0.32222 -0.61464,-0.44305 -0.34025,-0.13426 -0.74635,-0.13426 -0.3183,0 -0.58172,0.12083 -0.252437,0.10739 -0.439027,0.29537 -0.186587,0.17453 -0.296337,0.41621 -0.0988,0.24165 -0.0988,0.48331 0,0.3088 0.0549,0.57732 0.0658,0.25509 0.219507,0.49675 0.16464,0.24167 0.43904,0.48333 0.285367,0.22823 0.724397,0.48333 l 1.32806,0.7787 q 0.93294,0.55045 1.38294,1.28887 0.46098,0.72499 0.46098,1.61109 0,0.69815 -0.24147,1.27545 -0.24146,0.56388 -0.63659,0.96665 -0.38415,0.40278 -0.88903,0.61759 -0.49391,0.22824 -1.00977,0.22824 -0.79025,0 -1.745134,-0.33564 -0.32927,-0.10739 -0.493907,-0.10739 -0.21952,0 -0.32927,0.29536 h -0.296348 v -3.63839 h 0.296348 q 0.12073,0.79213 0.37318,1.38286 0.252437,0.57731 0.592687,0.96665 0.351217,0.38935 0.757314,0.59073 0.41708,0.18797 0.85611,0.18797 0.30732,0 0.57074,-0.12083 0.26342,-0.12083 0.45,-0.32222 0.18659,-0.21481 0.28537,-0.48333 0.10975,-0.28194 0.10975,-0.60416 0,-0.33564 -0.0658,-0.60416 -0.0658,-0.28194 -0.25244,-0.53703 -0.17561,-0.25509 -0.48293,-0.51018 -0.30732,-0.25509 -0.77928,-0.56388 l -1.185377,-0.75185 q -0.493907,-0.30879 -0.801224,-0.60416 -0.29634,-0.29537 -0.47196,-0.61759 -0.164637,-0.32222 -0.230487,-0.67128 -0.05488,-0.3625 -0.05488,-0.79212 0,-0.61759 0.186592,-1.15462 0.186585,-0.53703 0.515865,-0.92638 0.340237,-0.40278 0.801214,-0.63101 0.460977,-0.22825 1.020747,-0.22825 0.16463,0 0.42805,0.0671 0.27439,0.0671 0.54879,0.14768 0.28537,0.0805 0.50488,0.14768 0.2305,0.0671 0.31829,0.0671 0.14269,0 0.21952,-0.0805 0.0878,-0.0805 0.19756,-0.34907 z"
       style="font-style:normal;font-variant:normal;font-weight:normal;font-stretch:normal;font-size:24.86089134px;line-height:1.25;font-family:'Shonar Bangla';-inkscape-font-specification:'Shonar Bangla';letter-spacing:0px;word-spacing:0px;fill:#4d4d4d;fill-opacity:1;stroke:none;stroke-width:0.62152225"
       id="path3899-5" />
    <path
       inkscape:connector-curvature="0"
       style="font-style:normal;font-variant:normal;font-weight:normal;font-stretch:normal;font-size:24.86089134px;line-height:1.25;font-family:'Shonar Bangla';-inkscape-font-specification:'Shonar Bangla';letter-spacing:0px;word-spacing:0px;fill:#4d4d4d;fill-opacity:1;stroke:none;stroke-width:0.62152225"
       d="m 68.023788,263.60869 c -0.892693,0 -1.723019,0.21029 -2.491322,0.63097 -0.760984,0.42067 -1.423537,0.99773 -1.986957,1.73167 -0.556106,0.72499 -0.994762,1.58015 -1.316717,2.56471 -0.314638,0.98456 -0.472321,2.045 -0.472321,3.18171 0,1.11882 0.146563,2.14338 0.439248,3.07423 0.300006,0.93086 0.716933,1.73667 1.251087,2.41691 0.534152,0.68024 1.167392,1.20848 1.899108,1.5844 0.731716,0.37593 1.532729,0.56379 2.403472,0.56379 0.987984,0 1.856301,-0.23518 2.605524,-0.70383 l 0.907955,2.61999 c -0.08356,-1.63859 0.898105,-2.47597 1.440741,-3.04529 0.465037,-0.47637 0.830099,-0.8536 1.181323,-1.19372 0.09409,-0.0935 0.191098,-0.179 0.290422,-0.25839 -0.0021,-0.0568 -0.0052,-0.11282 -0.0052,-0.17104 0,-0.27237 0.02792,-0.52407 0.07803,-0.75965 -0.141441,0.0716 -0.298055,0.1506 -0.385505,0.19586 -0.268391,0.13888 -0.230524,0.14282 -0.318329,0.18758 -0.08781,0.0447 -0.16057,0.0672 -0.219106,0.0672 -0.197565,0 -0.48694,-0.50645 -0.483177,-0.81907 l -0.285253,-0.22789 c -0.373176,0.62653 -0.720876,1.14131 -1.042831,1.54409 -0.321953,0.40277 -0.643877,0.72469 -0.965833,0.96635 -0.321955,0.23271 -0.654997,0.39367 -0.998905,0.48317 -0.343905,0.0895 -0.716867,0.13436 -1.119312,0.13436 -0.709763,0 -1.350073,-0.1475 -1.920811,-0.44287 -0.563423,-0.29536 -1.046565,-0.72493 -1.44901,-1.28881 -0.395126,-0.57284 -0.698338,-1.271 -0.910537,-2.09444 -0.212198,-0.82345 -0.318328,-1.7633 -0.318328,-2.81947 0,-1.23517 0.10613,-2.31356 0.318328,-3.23546 0.219515,-0.92191 0.519195,-1.68286 0.899687,-2.28255 0.380492,-0.60863 0.830786,-1.06062 1.350304,-1.35599 0.51952,-0.30432 1.082495,-0.4563 1.689819,-0.4563 0.497568,0 0.958985,0.0802 1.38338,0.24133 0.424394,0.15216 0.812011,0.40282 1.163235,0.75189 0.351224,0.34012 0.662024,0.78762 0.932759,1.34255 0.278054,0.54599 0.516089,1.20827 0.713653,1.98696 h 0.274402 l -0.274402,-5.11493 h -0.318328 c -0.05854,0.30432 -0.153543,0.55498 -0.285253,0.75189 -0.124391,0.19691 -0.285612,0.29507 -0.483174,0.29507 -0.05854,0 -0.131821,-0.0224 -0.219625,-0.0672 -0.08781,-0.0447 -0.193935,-0.10703 -0.318328,-0.18758 -0.43171,-0.26852 -0.870368,-0.46587 -1.316715,-0.59118 -0.439029,-0.13426 -0.878203,-0.20102 -1.317231,-0.20102 z m 6.224427,12.23646 c 0.292629,-0.14822 0.630819,-0.31033 0.931725,-0.39481 0.207629,-0.0635 0.415038,-0.11068 0.622702,-0.14417 0.0085,-0.0279 0.01532,-0.0572 0.02479,-0.0842 0.0878,-0.2506 0.244973,-0.49231 0.471805,-0.72502 0.234149,-0.24167 0.552538,-0.48336 0.954982,-0.72502 0.402442,-0.24167 0.918432,-0.51923 1.547707,-0.8325 v 2.84582 c 0.06235,0.031 0.125,0.0609 0.186552,0.0946 0.488717,0.27017 0.935887,0.60582 1.34307,1.00511 -0.0013,-0.024 -0.003,-0.0405 -0.0041,-0.0656 -0.01463,-0.31326 -0.0217,-0.76077 -0.0217,-1.34255 v -3.45044 c 0,-0.98455 -0.05509,-1.63786 -0.164849,-1.96009 -0.190246,-0.55493 -0.512167,-0.94861 -0.965832,-1.18132 -0.453663,-0.23271 -1.002501,-0.34881 -1.646412,-0.34881 -0.475615,0 -0.903666,0.0757 -1.284158,0.22789 -0.373176,0.14322 -0.691563,0.33557 -0.954982,0.57723 -0.256098,0.24167 -0.453184,0.51475 -0.592211,0.81907 -0.139026,0.30431 -0.208773,0.61328 -0.208773,0.92656 0,0.34011 0.06975,0.60872 0.208773,0.80563 0.146343,0.18793 0.332824,0.28164 0.559657,0.28164 0.226832,0 0.409776,-0.0847 0.548804,-0.25477 0.146338,-0.17006 0.219107,-0.4252 0.219107,-0.76533 0,-0.0985 -0.0035,-0.21058 -0.01085,-0.33589 -0.0074,-0.1253 -0.01085,-0.24589 -0.01085,-0.36225 0,-0.15217 0.02931,-0.30018 0.08785,-0.44339 0.05854,-0.15216 0.142423,-0.28619 0.252183,-0.40256 0.109757,-0.11636 0.241662,-0.21059 0.395324,-0.28215 0.15366,-0.0716 0.329536,-0.10697 0.527098,-0.10697 0.241466,0 0.457261,0.0444 0.647507,0.13384 0.190246,0.0806 0.350948,0.22409 0.482658,0.42995 0.131707,0.19691 0.230772,0.46551 0.296622,0.80563 0.07317,0.34012 0.109553,0.76519 0.109553,1.27538 v 0.40256 c -0.885375,0.39382 -1.624227,0.75662 -2.216917,1.08779 -0.592691,0.32222 -1.068248,0.64862 -1.426787,0.97978 -0.35854,0.32222 -0.614767,0.66708 -0.768429,1.03405 -0.06071,0.14851 -0.106069,0.30842 -0.141592,0.47542 z m 6.083347,1.03973 c 0.01455,0.27633 0.03509,0.49254 0.06201,0.63252 0.03659,0.14321 0.08056,0.22843 0.131776,0.25528 0.05853,0.0269 0.127765,0.0403 0.208256,0.0403 0.06585,0 0.124479,-0.009 0.1757,-0.0269 0.04124,-0.0189 0.08482,-0.0501 0.129706,-0.0868 -0.02159,-0.029 -0.04212,-0.0592 -0.06408,-0.0879 -0.201586,-0.2626 -0.416525,-0.50412 -0.643374,-0.72657 z m 0.707451,0.81442 c 0.10223,0.13745 0.20102,0.27876 0.295074,0.4253 0.128567,-0.17434 0.257612,-0.3637 0.387572,-0.58033 v -0.61753 c -0.146343,0.179 -0.270663,0.32702 -0.373104,0.44338 -0.09512,0.11637 -0.179523,0.21008 -0.252696,0.28164 -0.01945,0.0185 -0.03803,0.0322 -0.05685,0.0475 z m 0.295074,0.4253 c -0.424786,0.57602 -0.842034,0.92266 -1.251603,1.03715 0.106648,0.30391 0.205425,0.62364 0.288869,0.9741 0.212199,0.92191 0.318328,2.00029 0.318328,3.23546 0,1.05617 -0.106129,1.99603 -0.318328,2.81946 -0.212196,0.82345 -0.515927,1.52162 -0.911053,2.09445 -0.402444,0.56388 -0.885071,0.99343 -1.44849,1.28881 -0.570741,0.29537 -1.211051,0.44287 -1.920815,0.44287 -0.402444,0 -0.775403,-0.0444 -1.119311,-0.13385 -0.343906,-0.0895 -0.67695,-0.25098 -0.998906,-0.48369 -0.321955,-0.24166 -0.643876,-0.56358 -0.965832,-0.96635 -0.321956,-0.40277 -0.669655,-0.91755 -1.042831,-1.54409 l -0.285253,0.22841 c 0.61464,1.34258 1.335302,2.32676 2.162141,2.95331 0.819523,0.61759 1.796412,0.92656 2.930572,0.92656 0.870741,0 1.671754,-0.18786 2.40347,-0.56379 0.731716,-0.37593 1.364956,-0.90416 1.89911,-1.5844 0.534149,-0.68023 0.951082,-1.48553 1.251085,-2.41639 0.292688,-0.93085 0.438732,-1.95592 0.438732,-3.07475 0,-1.13671 -0.157168,-2.19715 -0.471805,-3.18172 -0.24906,-0.76164 -0.568857,-1.44514 -0.95808,-2.05155 z m -1.251603,1.03715 c -0.173906,-0.49558 -0.374963,-0.93674 -0.610817,-1.30845 -0.231487,-0.37029 -0.489532,-0.68153 -0.772563,-0.93586 -0.70509,0.6751 -1.275437,1.01647 -1.707906,1.01647 -0.175612,0 -0.340365,-0.0449 -0.494025,-0.13436 -0.153662,-0.0985 -0.292637,-0.22801 -0.417028,-0.38912 -0.117076,-0.17006 -0.212598,-0.3669 -0.285771,-0.59066 -0.06383,-0.22558 -0.0952,-0.46439 -0.09715,-0.7152 -0.224999,0.0402 -0.441531,0.099 -0.649057,0.17776 -0.310698,0.11141 -0.601387,0.27657 -0.872813,0.49351 0.01222,0.31861 0.05672,0.61588 0.137459,0.88936 0.102439,0.32222 0.241417,0.59979 0.417028,0.8325 0.175612,0.22377 0.384334,0.39818 0.625801,0.52349 0.248785,0.13424 0.515617,0.20153 0.800986,0.20153 0.365858,0 0.713558,-0.0942 1.042829,-0.28215 0.219517,-0.11636 0.753697,-0.58181 1.602486,-1.3963 0,0.60864 0.09147,1.03824 0.274402,1.28881 0.18293,0.25062 0.416915,0.37621 0.702284,0.37621 0.100658,0 0.202263,-0.0192 0.303858,-0.0475 z m -4.385263,-3.05718 c 0.235136,-0.042 0.479542,-0.0636 0.733806,-0.0636 0.607325,0 1.170816,0.15197 1.690336,0.4563 0.203449,0.11567 0.39556,0.25642 0.577741,0.42013 0.03456,-0.0331 0.06762,-0.063 0.102836,-0.0977 v -1.03456 c -0.715888,-0.35597 -1.483593,-0.5364 -2.304767,-0.5364 -0.231402,0 -0.463095,0.02 -0.694531,0.0574 -0.06985,0.23043 -0.106971,0.48776 -0.106971,0.77514 0,0.008 0.0016,0.0153 0.0016,0.0233 z"
       id="path3891-7" />
    <g
       aria-label="FantastiCards"
       transform="matrix(0.90416379,0,0,1.1059943,-1.5875,-9.5250005)"
       style="font-style:normal;font-variant:normal;font-weight:normal;font-stretch:normal;font-size:24.86089134px;line-height:1.25;font-family:Vijaya;-inkscape-font-specification:Vijaya;letter-spacing:0px;word-spacing:0px;fill:#000000;fill-opacity:1;stroke:none;stroke-width:0.62152225"
       id="text3859">
      <path
         d="m 7.7334689,247.53516 v 5.35335 h 2.4763781 q 0.437008,0 0.740485,-0.085 0.303478,-0.085 0.509843,-0.29134 0.218504,-0.21851 0.339895,-0.58268 0.121391,-0.36417 0.182086,-0.91043 h 0.376313 v 4.60072 h -0.376313 q -0.01214,-0.50984 -0.109252,-0.87402 -0.08497,-0.36417 -0.291338,-0.58267 -0.194226,-0.23065 -0.534121,-0.3399 -0.327756,-0.10925 -0.837598,-0.10925 H 7.7334689 v 4.28511 q 0,0.48556 0.012139,0.78904 0.024278,0.30347 0.072835,0.4977 0.060695,0.19423 0.1699475,0.30348 0.1092519,0.10925 0.2913385,0.20636 0.4248688,0.23065 0.9225722,0.23065 h 0.4977034 v 0.37631 H 3.8489546 v -0.37631 h 0.4855643 q 0.8497375,0 1.2260498,-0.48557 0.2427822,-0.33989 0.2427822,-1.54166 v -8.80086 q 0,-0.47342 -0.024278,-0.7769 -0.012139,-0.30348 -0.072835,-0.4977 -0.060695,-0.19423 -0.1699475,-0.30348 Q 5.4270385,247.49872 5.257091,247.4016 4.8322222,247.15882 4.3345188,247.15882 H 3.8489546 v -0.36417 H 13.985109 v 2.98622 h -0.218504 q -0.206365,-0.74049 -0.461286,-1.17749 -0.254921,-0.44915 -0.606955,-0.67979 -0.352034,-0.24279 -0.837599,-0.31562 -0.473425,-0.0728 -1.128937,-0.0728 z"
         style="font-style:normal;font-variant:normal;font-weight:normal;font-stretch:normal;font-family:'Shonar Bangla';-inkscape-font-specification:'Shonar Bangla';stroke-width:0.62152225"
         id="path3875"
         inkscape:connector-curvature="0" />
      <path
         d="m 20.831566,259.07946 q -1.408137,1.10465 -1.77231,1.26246 -0.54626,0.25492 -1.153215,0.25492 -0.473425,0 -0.886155,-0.18208 -0.400591,-0.16995 -0.691929,-0.47343 -0.291339,-0.31561 -0.461286,-0.75262 -0.157809,-0.43701 -0.157809,-0.95899 0,-0.63124 0.242783,-1.1168 0.254921,-0.4977 0.849737,-0.93471 0.594816,-0.44915 1.578084,-0.88616 0.983268,-0.44914 2.4521,-0.98326 v -0.36418 q 0,-0.69193 -0.121391,-1.15321 -0.109252,-0.46129 -0.327756,-0.72835 -0.218504,-0.2792 -0.534121,-0.38845 -0.315617,-0.12139 -0.716207,-0.12139 -0.327756,0 -0.582678,0.0971 -0.254921,0.0971 -0.437007,0.25492 -0.182087,0.15781 -0.2792,0.36418 -0.09711,0.19422 -0.09711,0.40059 0,0.15781 0.01214,0.32775 0.01214,0.16995 0.01214,0.30348 0,0.46129 -0.242782,0.69193 -0.230643,0.23064 -0.606955,0.23064 -0.376312,0 -0.619094,-0.25492 -0.230644,-0.26706 -0.230644,-0.72834 0,-0.42487 0.230644,-0.8376 0.230643,-0.41273 0.655511,-0.74049 0.437008,-0.32775 1.056103,-0.52198 0.631233,-0.20637 1.420275,-0.20637 1.068242,0 1.820866,0.31562 0.752625,0.31562 1.068242,1.06824 0.182086,0.43701 0.182086,1.77231 v 3.11975 q 0,0.78905 0.02428,1.21391 0.02428,0.42487 0.07284,0.63124 0.0607,0.19422 0.145669,0.23064 0.09711,0.0364 0.230643,0.0364 0.109252,0 0.194226,-0.0243 0.09711,-0.0364 0.206365,-0.12139 0.121391,-0.0971 0.279199,-0.25492 0.169948,-0.15781 0.41273,-0.40059 v 0.5584 q -1.104659,1.50525 -2.148622,1.50525 -0.473425,0 -0.776903,-0.3399 -0.303477,-0.33989 -0.303477,-1.16535 z m 0,-4.16372 q -1.043964,0.42487 -1.711615,0.75263 -0.66765,0.32775 -1.056102,0.65551 -0.376312,0.31562 -0.521981,0.65551 -0.14567,0.3399 -0.14567,0.7769 0,0.35204 0.109252,0.66765 0.121391,0.30348 0.315617,0.53412 0.206365,0.21851 0.461286,0.35204 0.254921,0.12139 0.54626,0.12139 0.752625,0 2.002953,-1.00755 z"
         style="font-style:normal;font-variant:normal;font-weight:normal;font-stretch:normal;font-family:'Shonar Bangla';-inkscape-font-specification:'Shonar Bangla';stroke-width:0.62152225"
         id="path3877"
         inkscape:connector-curvature="0" />
      <path
         d="m 27.435239,252.88851 q 1.62664,-1.9544 3.083333,-1.9544 0.509843,0 0.946851,0.16995 0.437007,0.16995 0.752624,0.58268 0.315617,0.40059 0.497704,1.06824 0.182086,0.65551 0.182086,1.63878 v 3.93307 q 0,0.48557 0.02428,0.81332 0.03642,0.32776 0.169948,0.53412 0.13353,0.19423 0.41273,0.2792 0.279199,0.085 0.789042,0.085 v 0.36417 h -4.540026 v -0.36417 h 0.182086 q 0.449147,0 0.704068,-0.085 0.267061,-0.085 0.400591,-0.2792 0.13353,-0.19422 0.157808,-0.52198 0.03642,-0.32776 0.03642,-0.82546 v -3.76312 q 0,-1.27461 -0.327756,-1.83301 -0.327756,-0.5584 -1.09252,-0.5584 -1.189632,0 -2.379265,1.29889 v 4.85564 q 0,0.50984 0.02428,0.80118 0.03642,0.2792 0.09711,0.43701 0.07284,0.15781 0.157809,0.2185 0.09711,0.0607 0.206364,0.1214 0.267061,0.13353 1.007546,0.13353 v 0.36417 h -4.552165 v -0.36417 h 0.206365 q 0.352034,0 0.582677,-0.0728 0.230643,-0.085 0.364173,-0.2792 0.13353,-0.19422 0.182087,-0.52198 0.06069,-0.32776 0.06069,-0.8376 v -3.41109 q 0,-1.66306 -0.07283,-2.01509 -0.07283,-0.36417 -0.230643,-0.4977 -0.157809,-0.13353 -0.41273,-0.13353 -0.291339,0 -0.67979,0.15781 l -0.145669,-0.36418 2.767716,-1.12894 h 0.437008 z"
         style="font-style:normal;font-variant:normal;font-weight:normal;font-stretch:normal;font-family:'Shonar Bangla';-inkscape-font-specification:'Shonar Bangla';stroke-width:0.62152225"
         id="path3879"
         inkscape:connector-curvature="0" />
      <path
         d="m 37.717064,248.19068 v 3.0105 h 2.148622 v 0.70406 h -2.148622 v 5.97244 q 0,0.43701 0.0607,0.72835 0.07283,0.29134 0.194226,0.47343 0.121391,0.16994 0.279199,0.24278 0.169948,0.0607 0.376312,0.0607 0.327756,0 0.643373,-0.19422 0.315617,-0.20637 0.485564,-0.6191 h 0.388452 q -0.352034,0.99541 -0.995407,1.49311 -0.643373,0.48557 -1.323163,0.48557 -0.461286,0 -0.910433,-0.25492 -0.218504,-0.12139 -0.388451,-0.29134 -0.157809,-0.18209 -0.267061,-0.43701 -0.09711,-0.25492 -0.157808,-0.60696 -0.04856,-0.36417 -0.04856,-0.86187 v -6.19095 h -1.444554 v -0.32775 q 0.54626,-0.21851 1.116798,-0.74049 0.582677,-0.53412 1.031824,-1.26247 0.121391,-0.19422 0.279199,-0.53412 0.157809,-0.33989 0.364174,-0.84973 z"
         style="font-style:normal;font-variant:normal;font-weight:normal;font-stretch:normal;font-family:'Shonar Bangla';-inkscape-font-specification:'Shonar Bangla';stroke-width:0.62152225"
         id="path3881"
         inkscape:connector-curvature="0" />
      <path
         d="m 45.983794,259.07946 q -1.408136,1.10465 -1.77231,1.26246 -0.54626,0.25492 -1.153215,0.25492 -0.473425,0 -0.886155,-0.18208 -0.40059,-0.16995 -0.691929,-0.47343 -0.291338,-0.31561 -0.461286,-0.75262 -0.157808,-0.43701 -0.157808,-0.95899 0,-0.63124 0.242782,-1.1168 0.254921,-0.4977 0.849737,-0.93471 0.594817,-0.44915 1.578084,-0.88616 0.983268,-0.44914 2.4521,-0.98326 v -0.36418 q 0,-0.69193 -0.121391,-1.15321 -0.109252,-0.46129 -0.327756,-0.72835 -0.218504,-0.2792 -0.534121,-0.38845 -0.315617,-0.12139 -0.716207,-0.12139 -0.327756,0 -0.582677,0.0971 -0.254921,0.0971 -0.437008,0.25492 -0.182087,0.15781 -0.2792,0.36418 -0.09711,0.19422 -0.09711,0.40059 0,0.15781 0.01214,0.32775 0.01214,0.16995 0.01214,0.30348 0,0.46129 -0.242782,0.69193 -0.230643,0.23064 -0.606956,0.23064 -0.376312,0 -0.619094,-0.25492 -0.230643,-0.26706 -0.230643,-0.72834 0,-0.42487 0.230643,-0.8376 0.230643,-0.41273 0.655512,-0.74049 0.437008,-0.32775 1.056102,-0.52198 0.631234,-0.20637 1.420276,-0.20637 1.068241,0 1.820866,0.31562 0.752624,0.31562 1.068241,1.06824 0.182087,0.43701 0.182087,1.77231 v 3.11975 q 0,0.78905 0.02428,1.21391 0.02428,0.42487 0.07283,0.63124 0.0607,0.19422 0.14567,0.23064 0.09711,0.0364 0.230643,0.0364 0.109252,0 0.194225,-0.0243 0.09711,-0.0364 0.206365,-0.12139 0.121391,-0.0971 0.2792,-0.25492 0.169947,-0.15781 0.412729,-0.40059 v 0.5584 q -1.104658,1.50525 -2.148622,1.50525 -0.473425,0 -0.776902,-0.3399 -0.303478,-0.33989 -0.303478,-1.16535 z m 0,-4.16372 q -1.043963,0.42487 -1.711614,0.75263 -0.667651,0.32775 -1.056102,0.65551 -0.376313,0.31562 -0.521982,0.65551 -0.145669,0.3399 -0.145669,0.7769 0,0.35204 0.109252,0.66765 0.121391,0.30348 0.315616,0.53412 0.206365,0.21851 0.461286,0.35204 0.254922,0.12139 0.54626,0.12139 0.752625,0 2.002953,-1.00755 z"
         style="font-style:normal;font-variant:normal;font-weight:normal;font-stretch:normal;font-family:'Shonar Bangla';-inkscape-font-specification:'Shonar Bangla';stroke-width:0.62152225"
         id="path3883"
         inkscape:connector-curvature="0" />
      <path
         d="m 55.852888,250.93411 v 3.13189 h -0.339895 q -0.194226,-0.74048 -0.437008,-1.22605 -0.242782,-0.4977 -0.558399,-0.78904 -0.303477,-0.29134 -0.67979,-0.40059 -0.376312,-0.12139 -0.825459,-0.12139 -0.352034,0 -0.643373,0.10925 -0.279199,0.0971 -0.485564,0.26706 -0.206365,0.15781 -0.327756,0.37632 -0.109252,0.2185 -0.109252,0.437 0,0.2792 0.0607,0.52199 0.07283,0.23064 0.242782,0.44914 0.182087,0.21851 0.485564,0.43701 0.315617,0.20636 0.801181,0.43701 l 1.468832,0.70407 q 1.031824,0.4977 1.529528,1.16535 0.509842,0.65551 0.509842,1.45669 0,0.63124 -0.26706,1.15322 -0.26706,0.50984 -0.704068,0.87401 -0.424869,0.36418 -0.983268,0.5584 -0.54626,0.20637 -1.116798,0.20637 -0.874016,0 -1.930118,-0.30348 -0.364173,-0.0971 -0.54626,-0.0971 -0.242782,0 -0.364173,0.26706 H 50.30532 v -3.2897 h 0.327756 q 0.13353,0.71621 0.41273,1.25033 0.279199,0.52198 0.655512,0.87401 0.388451,0.35204 0.837598,0.53412 0.461286,0.16995 0.94685,0.16995 0.339895,0 0.631234,-0.10925 0.291338,-0.10925 0.497703,-0.29134 0.206365,-0.19422 0.315617,-0.43701 0.121391,-0.25492 0.121391,-0.54626 0,-0.30347 -0.07283,-0.54626 -0.07283,-0.25492 -0.279199,-0.48556 -0.194226,-0.23064 -0.534121,-0.46129 -0.339895,-0.23064 -0.861876,-0.50984 l -1.311024,-0.67979 q -0.54626,-0.2792 -0.886155,-0.54626 -0.327756,-0.26706 -0.521981,-0.5584 -0.182087,-0.29134 -0.254922,-0.60695 -0.0607,-0.32776 -0.0607,-0.71621 0,-0.5584 0.206365,-1.04396 0.206365,-0.48557 0.570538,-0.8376 0.376312,-0.36418 0.886155,-0.57054 0.509842,-0.20637 1.128937,-0.20637 0.182086,0 0.473425,0.0607 0.303477,0.0607 0.606955,0.13353 0.315617,0.0728 0.558399,0.13353 0.254921,0.0607 0.352034,0.0607 0.157808,0 0.242782,-0.0728 0.09711,-0.0728 0.218504,-0.31562 z"
         style="font-style:normal;font-variant:normal;font-weight:normal;font-stretch:normal;font-family:'Shonar Bangla';-inkscape-font-specification:'Shonar Bangla';stroke-width:0.62152225"
         id="path3885"
         inkscape:connector-curvature="0" />
      <path
         d="m 60.58714,248.19068 v 3.0105 h 2.148622 v 0.70406 H 60.58714 v 5.97244 q 0,0.43701 0.0607,0.72835 0.07283,0.29134 0.194226,0.47343 0.121391,0.16994 0.279199,0.24278 0.169948,0.0607 0.376313,0.0607 0.327755,0 0.643372,-0.19422 0.315617,-0.20637 0.485565,-0.6191 h 0.388451 q -0.352034,0.99541 -0.995407,1.49311 -0.643372,0.48557 -1.323162,0.48557 -0.461287,0 -0.910434,-0.25492 -0.218503,-0.12139 -0.388451,-0.29134 -0.157808,-0.18209 -0.26706,-0.43701 -0.09711,-0.25492 -0.157809,-0.60696 -0.04856,-0.36417 -0.04856,-0.86187 v -6.19095 h -1.444554 v -0.32775 q 0.54626,-0.21851 1.116798,-0.74049 0.582677,-0.53412 1.031824,-1.26247 0.121391,-0.19422 0.2792,-0.53412 0.157808,-0.33989 0.364173,-0.84973 z"
         style="font-style:normal;font-variant:normal;font-weight:normal;font-stretch:normal;font-family:'Shonar Bangla';-inkscape-font-specification:'Shonar Bangla';stroke-width:0.62152225"
         id="path3887"
         inkscape:connector-curvature="0" />
      <path
         d="m 65.989044,246.12703 q 0.206365,0 0.388451,0.085 0.182087,0.0728 0.315617,0.21851 0.145669,0.13353 0.218504,0.31561 0.08497,0.18209 0.08497,0.40059 0,0.41273 -0.303478,0.71621 -0.291339,0.30348 -0.704068,0.30348 -0.218504,0 -0.41273,-0.085 -0.182087,-0.085 -0.327756,-0.2185 -0.13353,-0.14567 -0.218504,-0.32776 -0.07283,-0.18208 -0.07283,-0.38845 0,-0.42487 0.291338,-0.7162 0.303478,-0.30348 0.740486,-0.30348 z m 0.825459,4.80708 v 7.39272 q 0,0.50984 0.03642,0.84974 0.03642,0.32775 0.182087,0.52198 0.145669,0.19423 0.424869,0.26706 0.279199,0.0728 0.752624,0.0728 v 0.36417 h -4.467191 v -0.36417 q 0.485564,0 0.764764,-0.0607 0.279199,-0.0728 0.424868,-0.26706 0.14567,-0.19423 0.182087,-0.52198 0.03642,-0.32776 0.03642,-0.86188 v -3.54462 q 0,-0.86187 -0.02428,-1.35958 -0.02428,-0.50984 -0.109252,-0.76476 -0.07283,-0.25492 -0.218504,-0.31562 -0.145669,-0.0728 -0.376312,-0.0728 -0.291339,0 -0.67979,0.15781 l -0.13353,-0.36418 2.767716,-1.12894 z"
         style="font-style:normal;font-variant:normal;font-weight:normal;font-stretch:normal;font-family:'Shonar Bangla';-inkscape-font-specification:'Shonar Bangla';stroke-width:0.62152225"
         id="path3889"
         inkscape:connector-curvature="0" />
      <path
         style="font-style:normal;font-variant:normal;font-weight:normal;font-stretch:normal;font-family:'Shonar Bangla';-inkscape-font-specification:'Shonar Bangla';stroke-width:2.34906054"
         d="m 261.09766,107.79688 c -3.37396,0 -6.5122,0.7948 -9.41602,2.38476 -2.87616,1.58996 -5.3803,3.77096 -7.50976,6.54492 -2.10182,2.74011 -3.75973,5.9722 -4.97657,9.69336 -1.18918,3.72119 -1.78515,7.72916 -1.78515,12.02539 0,4.2286 0.55394,8.10095 1.66015,11.61914 1.13388,3.5182 2.70967,6.56379 4.72852,9.13477 2.01884,2.57098 4.41219,4.56748 7.17773,5.98828 2.76554,1.42083 5.79299,2.13086 9.08399,2.13086 3.73411,0 7.01594,-0.88887 9.84765,-2.66016 l 3.43164,9.90235 c -0.31582,-6.19313 3.39441,-9.358 5.44532,-11.50977 1.75762,-1.80047 3.13738,-3.2262 4.46484,-4.51172 0.35563,-0.35345 0.72226,-0.67651 1.09766,-0.97656 -0.008,-0.21463 -0.0195,-0.42643 -0.0195,-0.64648 0,-1.0294 0.10552,-1.98073 0.29493,-2.8711 -0.53458,0.27077 -1.12651,0.5692 -1.45703,0.74024 -1.01439,0.5249 -0.87127,0.53981 -1.20313,0.70898 -0.33189,0.16888 -0.60688,0.25391 -0.82812,0.25391 -0.7467,0 -1.8404,-1.91415 -1.82618,-3.09571 l -1.07812,-0.86132 c -1.41043,2.36801 -2.72457,4.31364 -3.94141,5.83593 -1.21683,1.5223 -2.43355,2.73899 -3.65039,3.65235 -1.21684,0.87955 -2.47558,1.48788 -3.77539,1.82617 -1.2998,0.33828 -2.70942,0.50781 -4.23047,0.50781 -2.68257,0 -5.10264,-0.55748 -7.25976,-1.67383 -2.12947,-1.11634 -3.95552,-2.73989 -5.47657,-4.87109 -1.49339,-2.16506 -2.63939,-4.80377 -3.4414,-7.91602 -0.80201,-3.11222 -1.20313,-6.66444 -1.20313,-10.65625 0,-4.66834 0.40112,-8.74415 1.20313,-12.22851 0.82966,-3.48437 1.96231,-6.36043 3.40039,-8.62696 1.43808,-2.30035 3.13998,-4.00865 5.10351,-5.125 1.96354,-1.15017 4.09132,-1.7246 6.38672,-1.7246 1.88057,0 3.62451,0.3032 5.22852,0.9121 1.60401,0.57511 3.06902,1.5225 4.39648,2.8418 1.32746,1.28551 2.50214,2.97685 3.52539,5.07422 1.05091,2.06357 1.95057,4.56667 2.69727,7.50977 h 1.03711 l -1.03711,-19.33203 h -1.20313 c -0.22124,1.15017 -0.58032,2.09756 -1.07812,2.84179 -0.47014,0.74423 -1.07948,1.11524 -1.82617,1.11524 -0.22125,0 -0.49822,-0.0847 -0.83008,-0.25391 -0.33186,-0.16916 -0.73298,-0.40453 -1.20313,-0.70898 -1.63166,-1.01486 -3.28958,-1.76077 -4.97656,-2.23438 -1.65932,-0.50744 -3.31919,-0.75976 -4.97851,-0.75976 z m 23.52539,46.24804 c 1.106,-0.56019 2.3842,-1.1729 3.52148,-1.49219 0.78474,-0.24003 1.56865,-0.41831 2.35352,-0.54492 0.032,-0.10555 0.0579,-0.21597 0.0937,-0.31836 0.33186,-0.94717 0.92588,-1.86069 1.7832,-2.74023 0.88497,-0.9134 2.08833,-1.82688 3.60938,-2.74024 1.52104,-0.9134 3.47124,-1.96246 5.8496,-3.14648 v 10.75586 c 0.23566,0.11717 0.47244,0.23004 0.70508,0.35742 1.84712,1.02109 3.53721,2.28969 5.07617,3.79883 -0.005,-0.0909 -0.0112,-0.15326 -0.0156,-0.24805 -0.0553,-1.18398 -0.082,-2.87534 -0.082,-5.07422 v -13.04101 c 0,-3.72116 -0.20822,-6.19036 -0.62305,-7.40821 -0.71904,-2.09738 -1.93575,-3.5853 -3.65039,-4.46484 -1.71463,-0.87954 -3.78898,-1.31836 -6.22266,-1.31836 -1.7976,0 -3.41543,0.28623 -4.85351,0.86133 -1.41043,0.54129 -2.61378,1.26828 -3.60938,2.18164 -0.96793,0.9134 -1.71282,1.94554 -2.23828,3.0957 -0.52545,1.15017 -0.78906,2.31793 -0.78906,3.50196 0,1.28547 0.26361,2.30069 0.78906,3.04492 0.55311,0.71029 1.25792,1.06445 2.11524,1.06445 0.85732,0 1.54876,-0.32015 2.07422,-0.96289 0.55309,-0.64274 0.82812,-1.60706 0.82812,-2.89258 0,-0.37211 -0.0133,-0.79592 -0.041,-1.26953 -0.0278,-0.47357 -0.041,-0.92935 -0.041,-1.36914 0,-0.5751 0.11079,-1.13454 0.33203,-1.67578 0.22124,-0.5751 0.53829,-1.08169 0.95313,-1.52148 0.41483,-0.4398 0.91337,-0.79596 1.49414,-1.06641 0.58076,-0.27046 1.24549,-0.4043 1.99218,-0.4043 0.91263,0 1.72823,0.16769 2.44727,0.50586 0.71904,0.30444 1.32642,0.84695 1.82422,1.625 0.49779,0.74423 0.87221,1.75941 1.12109,3.04492 0.27657,1.28548 0.41406,2.89206 0.41406,4.82032 v 1.52148 c -3.3463,1.48846 -6.13881,2.85967 -8.3789,4.11133 -2.24009,1.21784 -4.03747,2.45147 -5.39258,3.70312 -1.35511,1.21784 -2.32353,2.52124 -2.9043,3.90821 -0.22944,0.56132 -0.40089,1.1657 -0.53515,1.79687 z m 22.99218,3.92969 c 0.055,1.04439 0.13262,1.86156 0.23438,2.39062 0.1383,0.54125 0.30446,0.86335 0.49805,0.96485 0.22123,0.10158 0.48289,0.15234 0.78711,0.15234 0.24888,0 0.47047,-0.0334 0.66406,-0.10156 0.15589,-0.0716 0.3206,-0.18944 0.49023,-0.32813 -0.0816,-0.1097 -0.15921,-0.22385 -0.24218,-0.33203 -0.7619,-0.99249 -1.57427,-1.90533 -2.43165,-2.74609 z m 2.67383,3.07812 c 0.38638,0.51948 0.75976,1.05359 1.11524,1.60743 0.48592,-0.65893 0.97365,-1.37463 1.46484,-2.19336 v -2.33399 c -0.55311,0.67656 -1.02298,1.23599 -1.41016,1.67578 -0.35951,0.4398 -0.67851,0.794 -0.95507,1.06446 -0.0735,0.07 -0.14375,0.12155 -0.21485,0.17968 z m 1.11524,1.60743 c -1.60549,2.17708 -3.18249,3.48722 -4.73047,3.91992 0.40308,1.14866 0.77641,2.35709 1.09179,3.68164 0.80201,3.48439 1.20313,7.56018 1.20313,12.22851 0,3.99183 -0.40112,7.54406 -1.20313,10.65625 -0.802,3.11224 -1.94996,5.751 -3.44335,7.91602 -1.52105,2.1312 -3.34515,3.7547 -5.47461,4.87109 -2.15713,1.11635 -4.5772,1.67383 -7.25977,1.67383 -1.52105,0 -2.93066,-0.16764 -4.23047,-0.50586 -1.2998,-0.33817 -2.55855,-0.94858 -3.77539,-1.82812 -1.21684,-0.91336 -2.43355,-2.13007 -3.65039,-3.65235 -1.21684,-1.52228 -2.53098,-3.46793 -3.94141,-5.83593 l -1.07812,0.86328 c 2.32305,5.07431 5.04681,8.79406 8.17187,11.16211 3.09741,2.33418 6.78959,3.50195 11.07618,3.50195 3.29099,0 6.31844,-0.71003 9.08398,-2.13086 2.76554,-1.42083 5.15889,-3.41729 7.17774,-5.98828 2.01883,-2.57095 3.59464,-5.6146 4.72851,-9.13281 1.10622,-3.51817 1.6582,-7.39247 1.6582,-11.6211 0,-4.29622 -0.59402,-8.30419 -1.7832,-12.02539 -0.94133,-2.87864 -2.15001,-5.46196 -3.62109,-7.7539 z m -4.73047,3.91992 c -0.65728,-1.87305 -1.41718,-3.54042 -2.3086,-4.94531 -0.87491,-1.39952 -1.8502,-2.57586 -2.91992,-3.53711 -2.66491,2.55155 -4.82055,3.84179 -6.45508,3.84179 -0.66373,0 -1.28642,-0.16964 -1.86718,-0.50781 -0.58077,-0.37212 -1.10603,-0.86178 -1.57617,-1.4707 -0.44249,-0.64274 -0.80352,-1.3867 -1.08008,-2.23242 -0.24126,-0.85258 -0.35979,-1.75518 -0.36719,-2.70313 -0.85039,0.15185 -1.66878,0.37412 -2.45313,0.67188 -1.17429,0.42106 -2.27296,1.04529 -3.29882,1.86523 0.0462,1.20418 0.21439,2.32772 0.51953,3.36133 0.38717,1.21784 0.91244,2.26694 1.57617,3.14648 0.66373,0.84573 1.4526,1.50491 2.36523,1.97852 0.94029,0.50738 1.94879,0.76172 3.02735,0.76172 1.38277,0 2.69691,-0.356 3.9414,-1.06641 0.82967,-0.43979 2.84862,-2.19897 6.05664,-5.27734 0,2.30037 0.3457,3.92404 1.03711,4.87109 0.69139,0.94722 1.57574,1.42188 2.6543,1.42188 0.38044,0 0.76446,-0.0724 1.14844,-0.17969 z m -16.57422,-11.55469 c 0.8887,-0.15869 1.81244,-0.24023 2.77344,-0.24023 2.2954,0 4.42513,0.5744 6.38867,1.72461 0.76894,0.43717 1.49503,0.96914 2.18359,1.58789 0.13062,-0.12506 0.25558,-0.23796 0.38867,-0.36914 v -3.91016 c -2.70572,-1.34538 -5.60728,-2.02734 -8.71093,-2.02734 -0.87459,0 -1.75028,0.0757 -2.625,0.21679 -0.264,0.87092 -0.4043,1.84352 -0.4043,2.92969 0,0.0301 0.006,0.0579 0.006,0.0879 z"
         transform="matrix(0.29262766,0,0,0.23922667,0,220.6913)"
         id="path3891"
         inkscape:connector-curvature="0" />
      <path
         d="m 94.940813,250.93411 v 2.07579 q 1.141076,-2.07579 2.367126,-2.07579 0.26706,0 0.497703,0.0971 0.242782,0.085 0.41273,0.24278 0.169947,0.15781 0.26706,0.36417 0.09711,0.19423 0.09711,0.41273 0,0.38845 -0.26706,0.66765 -0.254921,0.26706 -0.619095,0.26706 -0.169947,0 -0.376312,-0.10925 -0.206365,-0.10925 -0.41273,-0.23064 -0.206364,-0.13353 -0.388451,-0.24278 -0.169948,-0.10926 -0.254921,-0.10926 -0.2792,0 -0.631234,0.43701 -0.352034,0.43701 -0.691929,1.1168 v 4.4065 q 0,0.42487 0.04856,0.75262 0.04856,0.32776 0.218504,0.5584 0.169948,0.23064 0.485565,0.35203 0.315616,0.1214 0.849737,0.1214 v 0.36417 h -4.709973 v -0.36417 q 0.461286,0 0.740485,-0.0607 0.291339,-0.0607 0.437008,-0.24278 0.157808,-0.18209 0.206365,-0.50984 0.06069,-0.3399 0.06069,-0.88616 v -3.5689 q 0,-1.59022 -0.07283,-1.90584 -0.07283,-0.31561 -0.242782,-0.44914 -0.169948,-0.14567 -0.424869,-0.14567 -0.339895,0 -0.704068,0.15781 l -0.09711,-0.36418 2.779855,-1.12894 z"
         style="font-style:normal;font-variant:normal;font-weight:normal;font-stretch:normal;font-family:'Shonar Bangla';-inkscape-font-specification:'Shonar Bangla';stroke-width:0.62152225"
         id="path3895"
         inkscape:connector-curvature="0" />
      <path
         d="m 105.58681,259.37079 q -0.66765,0.70407 -1.31102,1.00755 -0.64337,0.30348 -1.38386,0.30348 -0.75262,0 -1.43241,-0.32776 -0.67979,-0.32775 -1.20178,-0.92257 -0.521978,-0.59482 -0.825455,-1.42028 -0.303478,-0.82545 -0.303478,-1.82086 0,-0.97113 0.327756,-1.90584 0.327756,-0.94685 0.910437,-1.68734 0.59481,-0.75262 1.40813,-1.21391 0.82546,-0.46128 1.80873,-0.46128 1.22605,0 2.00295,0.7769 v -1.69948 q 0,-1.57808 -0.0728,-1.93011 -0.0728,-0.36418 -0.24278,-0.49771 -0.15781,-0.13353 -0.4006,-0.13353 -0.24278,0 -0.69192,0.16995 l -0.13353,-0.35203 2.74343,-1.12894 h 0.44915 v 10.63386 q 0,1.6145 0.0728,1.97867 0.0728,0.35203 0.24278,0.4977 0.16994,0.13353 0.38845,0.13353 0.25492,0 0.72835,-0.16994 l 0.10925,0.35203 -2.7313,1.12894 h -0.46129 z m 0,-5.43832 q 0,-0.50984 -0.19422,-0.94685 -0.18209,-0.437 -0.48557,-0.75262 -0.29134,-0.32776 -0.66765,-0.4977 -0.36417,-0.18209 -0.71621,-0.18209 -0.54626,0 -1.01968,0.26706 -0.46129,0.26706 -0.80118,0.7769 -0.3399,0.49771 -0.53412,1.21391 -0.19423,0.70407 -0.19423,1.57809 0,1.01968 0.24278,1.80872 0.24279,0.77691 0.64338,1.31103 0.40059,0.52198 0.91043,0.80118 0.50984,0.26706 1.04396,0.26706 0.91044,0 1.77231,-0.91043 z"
         style="font-style:normal;font-variant:normal;font-weight:normal;font-stretch:normal;font-family:'Shonar Bangla';-inkscape-font-specification:'Shonar Bangla';stroke-width:0.62152225"
         id="path3897"
         inkscape:connector-curvature="0" />
      <path
         d="m 115.33451,250.93411 v 3.13189 h -0.33989 q -0.19423,-0.74048 -0.43701,-1.22605 -0.24278,-0.4977 -0.5584,-0.78904 -0.30348,-0.29134 -0.67979,-0.40059 -0.37631,-0.12139 -0.82546,-0.12139 -0.35203,0 -0.64337,0.10925 -0.2792,0.0971 -0.48557,0.26706 -0.20636,0.15781 -0.32775,0.37632 -0.10925,0.2185 -0.10925,0.437 0,0.2792 0.0607,0.52199 0.0728,0.23064 0.24278,0.44914 0.18209,0.21851 0.48557,0.43701 0.31562,0.20636 0.80118,0.43701 l 1.46883,0.70407 q 1.03183,0.4977 1.52953,1.16535 0.50984,0.65551 0.50984,1.45669 0,0.63124 -0.26706,1.15322 -0.26706,0.50984 -0.70407,0.87401 -0.42487,0.36418 -0.98326,0.5584 -0.54626,0.20637 -1.1168,0.20637 -0.87402,0 -1.93012,-0.30348 -0.36417,-0.0971 -0.54626,-0.0971 -0.24278,0 -0.36417,0.26706 h -0.32776 v -3.2897 h 0.32776 q 0.13353,0.71621 0.41273,1.25033 0.2792,0.52198 0.65551,0.87401 0.38845,0.35204 0.8376,0.53412 0.46128,0.16995 0.94685,0.16995 0.33989,0 0.63123,-0.10925 0.29134,-0.10925 0.4977,-0.29134 0.20637,-0.19422 0.31562,-0.43701 0.12139,-0.25492 0.12139,-0.54626 0,-0.30347 -0.0728,-0.54626 -0.0728,-0.25492 -0.2792,-0.48556 -0.19423,-0.23064 -0.53412,-0.46129 -0.3399,-0.23064 -0.86188,-0.50984 l -1.31102,-0.67979 q -0.54626,-0.2792 -0.88616,-0.54626 -0.32775,-0.26706 -0.52198,-0.5584 -0.18209,-0.29134 -0.25492,-0.60695 -0.0607,-0.32776 -0.0607,-0.71621 0,-0.5584 0.20637,-1.04396 0.20636,-0.48557 0.57054,-0.8376 0.37631,-0.36418 0.88615,-0.57054 0.50984,-0.20637 1.12894,-0.20637 0.18208,0 0.47342,0.0607 0.30348,0.0607 0.60696,0.13353 0.31562,0.0728 0.5584,0.13353 0.25492,0.0607 0.35203,0.0607 0.15781,0 0.24278,-0.0728 0.0971,-0.0728 0.21851,-0.31562 z"
         style="font-style:normal;font-variant:normal;font-weight:normal;font-stretch:normal;font-family:'Shonar Bangla';-inkscape-font-specification:'Shonar Bangla';stroke-width:0.62152225"
         id="path3899"
         inkscape:connector-curvature="0" />
    </g>
  </g>
</svg>
